<svg version="1" xmlns="http://www.w3.org/2000/svg" width="933.333" height="933.333" viewBox="0 0 700.000000 700.000000"><path d="M14.4 136.7c-3.6.7-10.3 7.1-11.4 11.1-.8 2.5-1 31.1-.8 91.3l.3 87.5 2.7 4.1c2.4 3.6 2.5 4.3 1.2 5.4-6.1 5-6.5 17.3-.8 23.4 2.3 2.5 2.4 2.9 1 4.4C2 369 2 368.5 2 445.7c0 70.5.1 72.8 2 76.7 5.6 11.5 21.8 12.6 29 1.9l2.5-3.7.3-62.5c.1-34.4.3-69.4.5-77.6l.2-15H167l.2 77c.3 85.4-.1 80.1 7.1 85.9 3.4 2.7 4.6 3.1 10.1 3.1 5.3 0 6.8-.4 10-2.9 3.7-2.8 3.8-2.8 5.9-1 5.8 5 4.5 4.8 50.7 4.9 23.9.1 45.3-.3 47.4-.7 5.4-1.2 9.3-4.2 11.8-9.1l2.1-4.2.1-172.9.1-173 8.8-.1c4.8 0 9.3.2 10 .5.9.4 1.2 38.6 1.2 174.1v173.6l2.7 3.6c1.6 1.9 4.3 4.6 6 5.9l3.3 2.3h342.1l4.3-2.8c10.7-7.1 10.6-22.2-.2-29.9l-3.2-2.3-104.7-.3L478 497V150.3l-2.3-4.4c-6.4-12.1-24.3-11.6-30.3.9-1.7 3.5-1.8 13.8-1.8 188.2.1 166.1.2 184.8 1.6 187.5l1.6 3h-50.1c-54.6-.1-53.2 0-56-5.8-1.1-2.3-1.4-32.4-1.4-174.7 0-94.6.3-172 .6-172.1.3 0 16.4-.1 35.6-.2l35-.2 3.7-2.5c11.9-8 10.1-26-3.1-31.7-2.6-1.1-9.5-1.4-33.7-1.4-16.7-.1-31.3.3-32.6.6-3.6 1.1-8.7 5.3-10.4 8.7-.9 1.8-1.8 6.2-1.9 10.4-.2 4-.6 7.7-.9 8.2-.3.6-4.8.9-9.8.9l-9.3-.2-.2-7.4c-.2-9.9-3.1-15.6-9.5-18.9-4.5-2.3-4.9-2.4-35.6-2.3-28.8 0-31.3.1-34.9 1.9-4.8 2.5-7.2 5.1-8.8 9.9-3.1 9 1.1 18.9 9.5 22.6 1.6.7 14.8 1.2 36 1.3 18.4.1 34.2.3 35 .3 1.3.1 1.5 19.9 1.4 172.4-.1 131.8-.4 172.7-1.3 174.5-.6 1.2-2.4 3-3.8 3.9-2.4 1.6-6.6 1.8-46.1 1.8-31.3 0-44.2-.3-46.2-1.2-6.2-2.5-5.8 2.4-6.2-92.9l-.3-87.1-3.2-5.1c-2.2-3.6-2.8-5.2-1.8-5.5.7-.3 2.2-2.5 3.4-5l2.1-4.4-.2-88.5-.3-88.5-2.8-3.6c-1.5-2-4.2-4.5-6-5.4-6.5-3.3-16.3-1.8-20.8 3.3-1.6 1.9-5 7.9-4.9 8.9V331H36l-.1-89.8c0-49.3-.2-90.4-.4-91.3-1.3-6.8-7.8-12.7-14.5-13.2-2.5-.2-5.5-.2-6.6 0zm8.6 7.8c6.4 3.3 6-3 6 96.2V331h-6.6c-7.6 0-9.8-.9-11.9-5-1.3-2.5-1.5-14.2-1.5-89 0-79.5.1-86.4 1.7-89.1 2.7-4.5 7.6-5.9 12.3-3.4zm166 0c6.4 3.3 6-2.3 6 93.4v86.9l-2.9 3.1c-2.8 2.9-3.3 3.1-10.5 3.1H174l.2-90.9c.3-89.3.3-90.9 2.3-93.1 3.4-3.8 8.1-4.8 12.5-2.5zm110.5.5c4.7 2.5 5.9 5.9 5.6 16.6l-.1 4.1h-33.2c-28 .1-33.8-.2-36.7-1.5-8.6-3.9-7.1-17.5 2.3-20 1.4-.4 15.4-.7 31.1-.6 21.5.1 29.2.4 31 1.4zm109.4 0c8.2 3.4 8.4 17 .3 19.8-1.5.5-17.8.9-36.2.8l-33.5-.1-.2-6c-.2-10.3 2.7-14.6 10.6-15.5 9.3-1 56-.3 59 1zm59.8 2.7l2.3 2.8V497l-5.7.1c-7.1.1-10.2.6-11.9 2-.7.6-1.7.9-2.1.6-.6-.4-.9-335.6-.4-348 .1-1 1.5-3.2 3.1-4.9 2.8-2.8 3.6-3 7.8-2.5 3.5.4 5.2 1.2 6.9 3.4zM29 348.5v10.2l-6.7-.2c-9.6-.2-12.5-2.1-13.7-9.1-.6-3.5 2.4-9.1 5.5-10.2 1.1-.5 4.9-.8 8.5-.8H29v10.1zm138 0v10H36.5l-.3-10-.3-10h65.6l65.5-.1v10.1zm22.8-8.6c3.5 1.9 4.6 5.1 4.7 13.8l.1 8.1-3-1.5c-1.9-1-5.9-1.6-10.3-1.7l-7.3-.1v-20.2l6.8.3c3.8.1 7.8.7 9 1.3zM29 441.2c0 56.6-.3 76.4-1.2 78.3-1.3 2.9-5.5 5.5-8.8 5.5-3.4 0-7.6-2.7-8.9-5.7-.8-2.1-1.1-22.1-.9-75.4.3-70.1.4-72.8 2.2-74.8 2.3-2.6 6.3-3.7 12.8-3.7H29v75.8zm160.8-74.3c4.9 2.6 4.9 1.7 4.8 79.4l-.1 72.9-3.3 2.9c-4.4 3.9-9 3.9-13.4 0l-3.3-2.9-.3-76.9-.2-76.9 6.8.1c3.8.2 7.8.8 9 1.4zm281.1 145c-.4 8.6-1.8 11.2-6.8 12.9-5.9 2.1-13.5-3.4-13.3-9.7.2-7.9 4-10.9 13.9-11h6.5l-.3 7.8zm217.8-4.4c4.5 4.5 4.7 10 .3 14.5-1.6 1.6-3.5 3.1-4.2 3.1-1.7.2-209.8.4-209.8.3 0-.1.7-1.8 1.5-3.7.8-2.1 1.5-6.7 1.5-10.6v-7h207.3l3.4 3.4z"/></svg>