<?xml version="1.0" encoding="UTF-8" standalone="no"?>
<!-- Created with Inkscape (http://www.inkscape.org/) -->

<svg
   xmlns:dc="http://purl.org/dc/elements/1.1/"
   xmlns:cc="http://creativecommons.org/ns#"
   xmlns:rdf="http://www.w3.org/1999/02/22-rdf-syntax-ns#"
   xmlns:svg="http://www.w3.org/2000/svg"
   xmlns="http://www.w3.org/2000/svg"
   xmlns:sodipodi="http://sodipodi.sourceforge.net/DTD/sodipodi-0.dtd"
   xmlns:inkscape="http://www.inkscape.org/namespaces/inkscape"
   width="517.05774mm"
   height="161.90912mm"
   viewBox="0 0 517.05774 161.90912"
   version="1.1"
   id="svg4691"
   inkscape:version="0.92.4 (5da689c313, 2019-01-14)"
   sodipodi:docname="HackTheLib_Navy.svg">
  <defs
     id="defs4685">
    <clipPath
       id="clipPath5419"
       clipPathUnits="userSpaceOnUse">
      <path
         style="clip-rule:evenodd"
         inkscape:connector-curvature="0"
         id="path5417"
         d="M 0,0 H 1536 V 700 H 0 Z" />
    </clipPath>
  </defs>
  <sodipodi:namedview
     id="base"
     pagecolor="#ffffff"
     bordercolor="#666666"
     borderopacity="1.0"
     inkscape:pageopacity="0.0"
     inkscape:pageshadow="2"
     inkscape:zoom="0.35"
     inkscape:cx="937.24185"
     inkscape:cy="268.15601"
     inkscape:document-units="mm"
     inkscape:current-layer="g5415"
     showgrid="false"
     inkscape:window-width="1366"
     inkscape:window-height="705"
     inkscape:window-x="-8"
     inkscape:window-y="-8"
     inkscape:window-maximized="1" />
  <metadata
     id="metadata4688">
    <rdf:RDF>
      <cc:Work
         rdf:about="">
        <dc:format>image/svg+xml</dc:format>
        <dc:type
           rdf:resource="http://purl.org/dc/dcmitype/StillImage" />
        <dc:title></dc:title>
      </cc:Work>
    </rdf:RDF>
  </metadata>
  <g
     inkscape:label="Layer 1"
     inkscape:groupmode="layer"
     id="layer1"
     transform="translate(204.51131,-57.873822)">
    <g
       transform="matrix(0.35277777,0,0,-0.35277777,-35.832137,397.0377)"
       inkscape:label="HTL White 4 L"
       id="g5411">
      <g
         id="g5413">
        <g
           clip-path="url(#clipPath5419)"
           id="g5415"
           transform="translate(-520.7143,383.57144)">
          <path
             inkscape:connector-curvature="0"
             id="path5425"
             style="fill:#00006f;fill-opacity:1;fill-rule:nonzero;stroke:#00006f;stroke-width:1;stroke-linecap:butt;stroke-linejoin:miter;stroke-miterlimit:10;stroke-dasharray:none;stroke-opacity:1"
             d="m 1470.25,485.259 v -6.629 l 0.05,6.629 z" />
          <path
             inkscape:connector-curvature="0"
             id="path5427"
             style="fill:#00006f;fill-opacity:1;fill-rule:nonzero;stroke:#00006f;stroke-width:1;stroke-linecap:butt;stroke-linejoin:miter;stroke-miterlimit:10;stroke-dasharray:none;stroke-opacity:1"
             d="m 1264.16,477.506 h 191.85 V 350.518 328.654 h -127.23 -129.24 -62.61 v 148.852 z m 64.62,4 h -129.24 -64.61 c -1.09,0 -2,-0.91 -2,-2 V 350.518 326.654 c 0,-1.089 0.91,-2 2,-2 h 323.08 c 1.09,0 2,0.911 2,2 v 152.852 c 0,1.09 -0.91,2 -2,2 z" />
          <path
             inkscape:connector-curvature="0"
             id="path5429"
             style="fill:#00006f;fill-opacity:1;fill-rule:nonzero;stroke:#00006f;stroke-width:1;stroke-linecap:butt;stroke-linejoin:miter;stroke-miterlimit:10;stroke-dasharray:none;stroke-opacity:1"
             d="m 1134.65,275.996 c 0,-0.684 0.57,-1.246 1.25,-1.25 38.79,-0.121 77.59,-0.242 116.37,-0.363 38.76,-0.117 77.51,-0.239 116.26,-0.36 28.83,-0.09 57.65,-0.179 86.47,-0.269 0.68,-0.004 1.25,0.57 1.25,1.25 0,0.683 -0.57,1.246 -1.25,1.25 -33.57,0.105 -67.13,0.207 -100.7,0.312 l -116.45,0.364 -101.95,0.316 h -0.01 c -0.68,0 -1.24,-0.573 -1.24,-1.25" />
          <path
             inkscape:connector-curvature="0"
             id="path5431"
             style="fill:#00006f;fill-opacity:1;fill-rule:nonzero;stroke:#00006f;stroke-width:1;stroke-linecap:butt;stroke-linejoin:miter;stroke-miterlimit:10;stroke-dasharray:none;stroke-opacity:1"
             d="m 1260.03,259.296 c 0,-0.68 0.57,-1.246 1.25,-1.25 15.56,-0.047 31.12,-0.094 46.68,-0.145 8.17,-0.023 16.35,-0.05 24.52,-0.074 0.68,-0.004 1.25,0.571 1.25,1.25 0,0.68 -0.57,1.246 -1.25,1.25 -13.71,0.043 -27.42,0.086 -41.14,0.125 l -30.06,0.094 v 0 c -0.68,0 -1.25,-0.572 -1.25,-1.25" />
          <path
             inkscape:connector-curvature="0"
             id="path5433"
             style="fill:#00006f;fill-opacity:1;fill-rule:nonzero;stroke:#00006f;stroke-width:1;stroke-linecap:butt;stroke-linejoin:miter;stroke-miterlimit:10;stroke-dasharray:none;stroke-opacity:1"
             d="m 1262.96,269.904 c -0.01,-0.027 -0.02,-0.055 -0.03,-0.082 -0.95,-3.324 -1.92,-6.648 -2.87,-9.973 -0.18,-0.656 0.22,-1.359 0.88,-1.539 0.66,-0.179 1.35,0.219 1.54,0.875 1.25,4.369 2.51,8.74 3.77,13.112 -0.87,0 -1.74,10e-4 -2.6,10e-4 -0.23,-0.798 -0.46,-1.597 -0.69,-2.394" />
          <path
             inkscape:connector-curvature="0"
             id="path5435"
             style="fill:#00006f;fill-opacity:1;fill-rule:nonzero;stroke:#00006f;stroke-width:1;stroke-linecap:butt;stroke-linejoin:miter;stroke-miterlimit:10;stroke-dasharray:none;stroke-opacity:1"
             d="m 1331.19,259.038 c 0.19,-0.656 0.88,-1.055 1.54,-0.875 0.65,0.18 1.06,0.883 0.87,1.539 -0.95,3.324 -1.91,6.648 -2.87,9.973 0,0.027 -0.01,0.054 -0.02,0.082 -0.24,0.832 -0.48,1.664 -0.72,2.497 -0.87,0 -1.74,10e-4 -2.6,10e-4 1.26,-4.407 2.53,-8.812 3.8,-13.217" />
          <path
             inkscape:connector-curvature="0"
             id="path5437"
             style="fill:#00006f;fill-opacity:1;fill-rule:nonzero;stroke:#00006f;stroke-width:1;stroke-linecap:butt;stroke-linejoin:miter;stroke-miterlimit:10;stroke-dasharray:none;stroke-opacity:1"
             d="m 1264.41,272.979 c -0.41,0 -0.75,-0.342 -0.75,-0.75 0,-0.406 0.34,-0.746 0.75,-0.75 12.48,-0.008 24.95,-0.016 37.42,-0.023 9.12,-0.004 18.23,-0.012 27.35,-0.016 0.41,-0.004 0.75,0.34 0.75,0.75 0,0.406 -0.34,0.746 -0.75,0.75 -9.84,0.004 -19.68,0.012 -29.52,0.019 -2.59,10e-4 -5.19,0.002 -7.79,0.003 -0.01,0.001 -0.02,0.001 -0.03,0.001 -9.14,0.004 -18.28,0.012 -27.43,0.016 z" />
          <path
             inkscape:connector-curvature="0"
             id="path5439"
             style="fill:#00006f;fill-opacity:1;fill-rule:nonzero;stroke:#00006f;stroke-width:1;stroke-linecap:butt;stroke-linejoin:miter;stroke-miterlimit:10;stroke-dasharray:none;stroke-opacity:1"
             d="m 1263.14,263.988 c -0.41,0 -0.75,-0.344 -0.75,-0.75 0,-0.41 0.34,-0.75 0.75,-0.75 l 12.15,-0.009 c 8.75,-0.006 17.49,-0.013 26.23,-0.018 9.64,-0.004 19.29,-0.012 28.93,-0.02 0.41,0 0.75,0.344 0.75,0.75 0,0.41 -0.34,0.75 -0.75,0.75 -11.11,0.008 -22.22,0.015 -33.34,0.023 -0.01,0 -0.01,10e-4 -0.02,10e-4 z" />
          <path
             inkscape:connector-curvature="0"
             id="path5441"
             style="fill:#00006f;fill-opacity:1;fill-rule:nonzero;stroke:#00006f;stroke-width:1;stroke-linecap:butt;stroke-linejoin:miter;stroke-miterlimit:10;stroke-dasharray:none;stroke-opacity:1"
             d="m 1295.93,262.562 c 0,-1.039 0,-2.078 -0.01,-3.117 0,-0.406 0.35,-0.75 0.75,-0.75 0.41,0 0.75,0.344 0.75,0.75 0.01,1.039 0.01,2.078 0.01,3.117 0,0.406 -0.34,0.75 -0.75,0.75 -0.41,0 -0.75,-0.344 -0.75,-0.75" />
          <path
             inkscape:connector-curvature="0"
             id="path5443"
             style="fill:#00006f;fill-opacity:1;fill-rule:nonzero;stroke:#00006f;stroke-width:1;stroke-linecap:butt;stroke-linejoin:miter;stroke-miterlimit:10;stroke-dasharray:none;stroke-opacity:1"
             d="m 1164.97,403.589 h -14.01 v -23.052 h 2.84 c 0.5,0 0.86,-0.184 1.08,-0.55 0.22,-0.367 0.33,-0.853 0.33,-1.459 0,-0.574 -0.11,-1.052 -0.33,-1.435 -0.22,-0.382 -0.58,-0.574 -1.08,-0.574 h -7.35 c -0.5,0 -0.86,0.192 -1.08,0.574 -0.22,0.383 -0.33,0.861 -0.33,1.435 0,0.606 0.11,1.092 0.33,1.459 0.22,0.366 0.58,0.55 1.08,0.55 h 2.39 v 47.922 h -1.31 c -0.52,0 -0.89,0.183 -1.1,0.55 -0.22,0.367 -0.33,0.853 -0.33,1.459 0,0.605 0.11,1.092 0.33,1.458 0.21,0.367 0.58,0.55 1.1,0.55 h 6.27 c 0.5,0 0.86,-0.183 1.08,-0.55 0.22,-0.366 0.33,-0.853 0.33,-1.458 0,-0.606 -0.11,-1.092 -0.33,-1.459 -0.22,-0.367 -0.58,-0.55 -1.08,-0.55 h -2.84 v -20.852 h 14.01 v 20.852 h -2.82 c -0.5,0 -0.86,0.183 -1.08,0.55 -0.22,0.367 -0.33,0.853 -0.33,1.459 0,0.605 0.11,1.092 0.32,1.458 0.21,0.367 0.57,0.55 1.09,0.55 h 6.27 c 0.52,0 0.89,-0.183 1.11,-0.55 0.21,-0.366 0.32,-0.853 0.32,-1.458 0,-0.606 -0.11,-1.092 -0.32,-1.459 -0.22,-0.367 -0.59,-0.55 -1.11,-0.55 h -1.31 v -47.922 h 2.39 c 0.5,0 0.86,-0.184 1.08,-0.55 0.22,-0.367 0.33,-0.853 0.33,-1.459 0,-0.574 -0.11,-1.052 -0.33,-1.435 -0.22,-0.382 -0.58,-0.574 -1.08,-0.574 h -7.35 c -0.5,0 -0.86,0.192 -1.08,0.574 -0.22,0.383 -0.33,0.861 -0.33,1.435 0,0.606 0.11,1.092 0.32,1.459 0.21,0.366 0.57,0.55 1.09,0.55 h 2.82 z" />
          <path
             inkscape:connector-curvature="0"
             id="path5445"
             style="fill:#00006f;fill-opacity:1;fill-rule:nonzero;stroke:#00006f;stroke-width:1;stroke-linecap:butt;stroke-linejoin:miter;stroke-miterlimit:10;stroke-dasharray:none;stroke-opacity:1"
             d="m 1194.81,376.519 v 5.787 c -3.07,-4.91 -6.35,-7.365 -9.83,-7.365 -2.54,0 -4.52,1.22 -5.94,3.659 -1.43,2.439 -2.14,5.428 -2.14,8.967 0,3.89 0.94,7.286 2.82,10.187 1.88,2.902 4.62,4.353 8.22,4.353 0.98,0 2.03,-0.12 3.17,-0.359 1.15,-0.239 2.38,-0.614 3.7,-1.124 v 6.504 c 0,2.2 -0.53,4.113 -1.61,5.739 -1.07,1.627 -2.68,2.44 -4.83,2.44 -1.64,0 -3.95,-0.909 -6.92,-2.726 -0.53,-0.319 -0.88,-0.479 -1.03,-0.479 -0.27,0 -0.5,0.192 -0.69,0.574 -0.19,0.383 -0.29,0.861 -0.29,1.435 0,0.542 0.08,0.972 0.25,1.291 0.24,0.479 1.18,1.132 2.84,1.961 2.62,1.339 4.6,2.009 5.94,2.009 2.67,0 4.75,-1.252 6.24,-3.754 1.5,-2.503 2.24,-5.333 2.24,-8.49 v -26.591 h 2.82 c 0.52,0 0.89,-0.184 1.11,-0.55 0.22,-0.367 0.32,-0.853 0.32,-1.459 0,-0.574 -0.1,-1.052 -0.32,-1.435 -0.22,-0.382 -0.59,-0.574 -1.11,-0.574 z m 0,19.992 c -0.99,0.542 -2.03,0.94 -3.14,1.195 -1.11,0.256 -2.27,0.383 -3.5,0.383 -3.07,0 -5.47,-1.259 -7.2,-3.778 -1.3,-1.881 -1.96,-4.129 -1.96,-6.744 0,-2.423 0.5,-4.464 1.5,-6.122 1,-1.658 2.45,-2.486 4.36,-2.486 1.83,0 3.53,0.693 5.1,2.08 1.57,1.387 3.18,3.595 4.84,6.624 z" />
          <path
             inkscape:connector-curvature="0"
             id="path5447"
             style="fill:#00006f;fill-opacity:1;fill-rule:nonzero;stroke:#00006f;stroke-width:1;stroke-linecap:butt;stroke-linejoin:miter;stroke-miterlimit:10;stroke-dasharray:none;stroke-opacity:1"
             d="m 1228.48,413.872 v 1.339 c 0,0.988 0.1,1.69 0.3,2.104 0.2,0.415 0.46,0.622 0.76,0.622 0.32,0 0.58,-0.207 0.78,-0.622 0.2,-0.414 0.3,-1.116 0.3,-2.104 v -9.087 c -0.02,-0.988 -0.12,-1.69 -0.32,-2.104 -0.19,-0.415 -0.44,-0.622 -0.76,-0.622 -0.29,0 -0.53,0.183 -0.72,0.55 -0.19,0.367 -0.31,0.98 -0.34,1.841 -0.1,2.264 -0.88,4.416 -2.35,6.457 -1.47,2.04 -3.45,3.061 -5.93,3.061 -3.13,0 -5.52,-1.866 -7.14,-5.596 -1.63,-3.731 -2.44,-8.003 -2.44,-12.818 0,-5.197 0.89,-9.485 2.69,-12.865 1.79,-3.38 4.12,-5.069 6.97,-5.069 1.64,0 3.31,0.573 5.02,1.721 1.7,1.148 3.24,2.997 4.61,5.548 0.36,0.638 0.67,0.957 0.94,0.957 0.28,0 0.52,-0.184 0.71,-0.55 0.2,-0.367 0.29,-0.821 0.29,-1.363 0,-1.371 -0.84,-3.109 -2.54,-5.213 -2.73,-3.412 -5.78,-5.118 -9.13,-5.118 -3.41,0 -6.21,2.065 -8.39,6.194 -2.19,4.129 -3.29,9.366 -3.29,15.711 0,6.472 1.12,11.845 3.36,16.117 2.24,4.273 5.06,6.409 8.47,6.409 3.24,0 5.95,-1.833 8.15,-5.5 z" />
          <path
             inkscape:connector-curvature="0"
             id="path5449"
             style="fill:#00006f;fill-opacity:1;fill-rule:nonzero;stroke:#00006f;stroke-width:1;stroke-linecap:butt;stroke-linejoin:miter;stroke-miterlimit:10;stroke-dasharray:none;stroke-opacity:1"
             d="m 1246.3,394.406 v -17.887 h -4.96 c -0.5,0 -0.87,0.192 -1.08,0.574 -0.22,0.383 -0.33,0.861 -0.33,1.435 0,0.606 0.11,1.092 0.33,1.459 0.21,0.366 0.58,0.55 1.08,0.55 h 2.84 v 51.939 h -2.84 c -0.5,0 -0.87,0.192 -1.08,0.574 -0.22,0.383 -0.33,0.877 -0.33,1.483 0,0.574 0.11,1.052 0.33,1.435 0.21,0.382 0.58,0.574 1.08,0.574 h 4.96 v -37.018 l 8.98,14.348 h -1.08 c -0.51,0 -0.87,0.191 -1.09,0.574 -0.21,0.382 -0.32,0.861 -0.32,1.435 0,0.605 0.11,1.1 0.32,1.482 0.22,0.383 0.58,0.574 1.09,0.574 h 6.76 c 0.52,0 0.89,-0.191 1.11,-0.574 0.22,-0.382 0.33,-0.877 0.33,-1.482 0,-0.574 -0.11,-1.053 -0.33,-1.435 -0.22,-0.383 -0.59,-0.574 -1.11,-0.574 h -2.44 l -8.25,-13.105 10.44,-20.23 h 2.44 c 0.52,0 0.89,-0.184 1.11,-0.55 0.22,-0.367 0.33,-0.853 0.33,-1.459 0,-0.574 -0.11,-1.052 -0.33,-1.435 -0.22,-0.382 -0.59,-0.574 -1.11,-0.574 h -6.84 c -0.5,0 -0.86,0.192 -1.08,0.574 -0.22,0.383 -0.33,0.861 -0.33,1.435 0,0.606 0.11,1.092 0.33,1.459 0.22,0.366 0.58,0.55 1.08,0.55 h 1.48 l -9.08,17.743 z" />
          <path
             inkscape:connector-curvature="0"
             id="path5451"
             style="fill:#00006f;fill-opacity:1;fill-rule:nonzero;stroke:#00006f;stroke-width:1;stroke-linecap:butt;stroke-linejoin:miter;stroke-miterlimit:10;stroke-dasharray:none;stroke-opacity:1"
             d="m 1282.55,428.459 v -47.922 h 5.49 c 0.5,0 0.86,-0.184 1.08,-0.55 0.22,-0.367 0.33,-0.853 0.33,-1.459 0,-0.574 -0.11,-1.052 -0.33,-1.435 -0.22,-0.382 -0.58,-0.574 -1.08,-0.574 h -13.11 c -0.5,0 -0.86,0.192 -1.08,0.574 -0.22,0.383 -0.33,0.861 -0.33,1.435 0,0.606 0.11,1.092 0.33,1.459 0.22,0.366 0.58,0.55 1.08,0.55 h 5.49 v 47.922 h -8.66 v -13.918 c 0,-0.988 -0.1,-1.689 -0.29,-2.104 -0.19,-0.414 -0.45,-0.622 -0.77,-0.622 -0.3,0 -0.55,0.208 -0.75,0.622 -0.2,0.415 -0.3,1.116 -0.3,2.104 v 17.935 h 23.67 v -17.935 c 0,-0.988 -0.09,-1.689 -0.29,-2.104 -0.19,-0.414 -0.44,-0.622 -0.76,-0.622 -0.32,0 -0.58,0.208 -0.77,0.622 -0.19,0.415 -0.29,1.116 -0.29,2.104 v 13.918 z" />
          <path
             inkscape:connector-curvature="0"
             id="path5453"
             style="fill:#00006f;fill-opacity:1;fill-rule:nonzero;stroke:#00006f;stroke-width:1;stroke-linecap:butt;stroke-linejoin:miter;stroke-miterlimit:10;stroke-dasharray:none;stroke-opacity:1"
             d="m 1305.48,436.542 v -24.727 c 1.34,2.774 2.63,4.727 3.86,5.859 1.23,1.132 2.61,1.698 4.14,1.698 1.64,0 3.04,-0.55 4.19,-1.65 1.15,-1.1 2.11,-2.79 2.88,-5.07 0.77,-2.279 1.16,-4.679 1.16,-7.198 v -24.917 h 2.36 c 0.52,0 0.89,-0.184 1.1,-0.55 0.21,-0.367 0.31,-0.853 0.31,-1.459 0,-0.574 -0.1,-1.052 -0.31,-1.435 -0.21,-0.382 -0.58,-0.574 -1.1,-0.574 h -6.87 c -0.52,0 -0.89,0.192 -1.11,0.574 -0.21,0.383 -0.32,0.861 -0.32,1.435 0,0.606 0.11,1.092 0.32,1.459 0.22,0.366 0.59,0.55 1.11,0.55 h 2.37 v 24.63 c 0,2.902 -0.55,5.325 -1.65,7.27 -1.1,1.945 -2.63,2.917 -4.59,2.917 -1.55,0 -2.86,-0.717 -3.95,-2.152 -0.79,-1.02 -2.09,-3.427 -3.9,-7.222 v -25.443 h 2.39 c 0.5,0 0.86,-0.184 1.08,-0.55 0.22,-0.367 0.33,-0.853 0.33,-1.459 0,-0.574 -0.11,-1.052 -0.33,-1.435 -0.22,-0.382 -0.58,-0.574 -1.08,-0.574 h -6.9 c -0.5,0 -0.86,0.192 -1.08,0.574 -0.22,0.383 -0.33,0.861 -0.33,1.435 0,0.606 0.11,1.092 0.33,1.459 0.22,0.366 0.58,0.55 1.08,0.55 h 2.39 v 51.939 h -2.84 c -0.5,0 -0.86,0.192 -1.08,0.574 -0.22,0.383 -0.33,0.877 -0.33,1.483 0,0.574 0.11,1.052 0.33,1.435 0.22,0.382 0.58,0.574 1.08,0.574 z" />
          <path
             inkscape:connector-curvature="0"
             id="path5455"
             style="fill:#00006f;fill-opacity:1;fill-rule:nonzero;stroke:#00006f;stroke-width:1;stroke-linecap:butt;stroke-linejoin:miter;stroke-miterlimit:10;stroke-dasharray:none;stroke-opacity:1"
             d="m 1354.79,396.272 h -21.53 c 0.36,-5.197 1.51,-9.382 3.43,-12.555 1.92,-3.172 4.3,-4.758 7.13,-4.758 1.58,0 3.23,0.494 4.96,1.482 1.73,0.989 3.14,2.296 4.23,3.922 0.32,0.478 0.59,0.717 0.83,0.717 0.27,0 0.5,-0.199 0.7,-0.598 0.2,-0.398 0.3,-0.868 0.3,-1.41 0,-0.542 -0.13,-1.069 -0.4,-1.579 -0.8,-1.594 -2.23,-3.085 -4.29,-4.471 -2.05,-1.387 -4.16,-2.081 -6.33,-2.081 -3.62,0 -6.64,2.256 -9.07,6.768 -2.42,4.511 -3.63,9.971 -3.63,16.38 0,5.835 1.13,10.841 3.41,15.018 2.27,4.176 5.08,6.265 8.44,6.265 3.45,0 6.3,-2.144 8.53,-6.433 2.23,-4.288 3.33,-9.844 3.29,-16.667 z m -2.13,4.065 c -0.42,4.432 -1.53,8.035 -3.31,10.809 -1.79,2.774 -3.92,4.161 -6.38,4.161 -2.47,0 -4.59,-1.371 -6.37,-4.113 -1.78,-2.742 -2.88,-6.361 -3.32,-10.857 z" />
          <path
             inkscape:connector-curvature="0"
             id="path5457"
             style="fill:#00006f;fill-opacity:1;fill-rule:nonzero;stroke:#00006f;stroke-width:1;stroke-linecap:butt;stroke-linejoin:miter;stroke-miterlimit:10;stroke-dasharray:none;stroke-opacity:1"
             d="m 1370.62,428.459 v -47.922 h 14.04 v 15.974 c 0,0.956 0.1,1.642 0.3,2.056 0.2,0.415 0.46,0.622 0.78,0.622 0.31,0 0.56,-0.199 0.76,-0.598 0.2,-0.398 0.3,-1.092 0.3,-2.08 v -19.992 h -23.35 c -0.5,0 -0.86,0.192 -1.08,0.574 -0.22,0.383 -0.33,0.861 -0.33,1.435 0,0.606 0.11,1.092 0.33,1.459 0.22,0.366 0.58,0.55 1.08,0.55 h 5.03 v 47.922 h -5.03 c -0.5,0 -0.86,0.183 -1.08,0.55 -0.22,0.367 -0.33,0.853 -0.33,1.459 0,0.605 0.11,1.092 0.33,1.458 0.22,0.367 0.58,0.55 1.08,0.55 h 12.2 c 0.51,0 0.87,-0.183 1.09,-0.55 0.21,-0.366 0.32,-0.853 0.32,-1.458 0,-0.606 -0.11,-1.092 -0.32,-1.459 -0.22,-0.367 -0.58,-0.55 -1.09,-0.55 z" />
          <path
             inkscape:connector-curvature="0"
             id="path5459"
             style="fill:#00006f;fill-opacity:1;fill-rule:nonzero;stroke:#00006f;stroke-width:1;stroke-linecap:butt;stroke-linejoin:miter;stroke-miterlimit:10;stroke-dasharray:none;stroke-opacity:1"
             d="m 1406.25,438.55 v -10.378 h -3.12 v 10.378 z m 0.08,-20.613 v -37.4 h 8.3 c 0.52,0 0.89,-0.184 1.11,-0.55 0.21,-0.367 0.32,-0.853 0.32,-1.459 0,-0.574 -0.11,-1.052 -0.32,-1.435 -0.22,-0.382 -0.59,-0.574 -1.11,-0.574 h -18.72 c -0.5,0 -0.86,0.192 -1.08,0.574 -0.22,0.383 -0.33,0.861 -0.33,1.435 0,0.606 0.11,1.092 0.33,1.459 0.22,0.366 0.58,0.55 1.08,0.55 h 8.3 v 33.335 h -6.16 c -0.51,0 -0.87,0.191 -1.1,0.574 -0.22,0.382 -0.34,0.861 -0.34,1.435 0,0.605 0.11,1.1 0.33,1.482 0.22,0.383 0.59,0.574 1.11,0.574 z" />
          <path
             inkscape:connector-curvature="0"
             id="path5461"
             style="fill:#00006f;fill-opacity:1;fill-rule:nonzero;stroke:#00006f;stroke-width:1;stroke-linecap:butt;stroke-linejoin:miter;stroke-miterlimit:10;stroke-dasharray:none;stroke-opacity:1"
             d="m 1428.17,436.542 v -26.64 c 2.55,6.313 5.62,9.47 9.23,9.47 3.09,0 5.73,-2.128 7.93,-6.385 2.19,-4.257 3.29,-9.478 3.29,-15.663 0,-6.249 -1.11,-11.542 -3.33,-15.879 -2.22,-4.336 -4.85,-6.504 -7.89,-6.504 -3.69,0 -6.77,3.157 -9.23,9.47 v -7.892 h -4.96 c -0.5,0 -0.86,0.192 -1.08,0.574 -0.22,0.383 -0.33,0.861 -0.33,1.435 0,0.606 0.11,1.092 0.33,1.459 0.22,0.366 0.58,0.55 1.08,0.55 h 2.84 v 51.939 h -2.84 c -0.5,0 -0.86,0.192 -1.08,0.574 -0.22,0.383 -0.33,0.877 -0.33,1.483 0,0.574 0.11,1.052 0.33,1.435 0.22,0.382 0.58,0.574 1.08,0.574 z m 18.34,-39.409 c 0,5.069 -0.91,9.366 -2.74,12.889 -1.83,3.523 -3.97,5.285 -6.42,5.285 -2.45,0 -4.59,-1.762 -6.42,-5.285 -1.82,-3.523 -2.74,-7.82 -2.74,-12.889 0,-5.07 0.92,-9.366 2.74,-12.89 1.83,-3.523 3.97,-5.284 6.42,-5.284 2.45,0 4.59,1.761 6.42,5.284 1.83,3.524 2.74,7.82 2.74,12.89 z" />
          <path
             inkscape:connector-curvature="0"
             id="path5463"
             style="fill:#00006f;fill-opacity:1;fill-rule:nonzero;stroke:#00006f;stroke-width:1;stroke-linecap:butt;stroke-linejoin:miter;stroke-miterlimit:10;stroke-dasharray:none;stroke-opacity:1"
             d="m 1093.16,252.328 2.85,5.045 2.86,5.06 11.27,19.937 8.86,15.677 1.24,2.184 1.24,2.195 139.72,-0.005 h 211.32 l 1.08,-1.917 1.09,-1.922 10.05,-17.785 10.05,-17.785 2.34,-4.132 3.6,-6.372 c -38.76,0 -77.55,-0.02 -116.33,-0.039 l -96.04,-0.047 c -7.48,-0.004 -14.92,-0.008 -22.36,-0.008 l -18.58,-0.01 -18.58,-0.01 -42.22,-0.02 c -27.92,-0.014 -55.84,-0.028 -83.76,-0.038 l -4.89,-0.004 z m 81.98,62.315 c 1.31,0 2.63,0 3.95,0.004 l 13.52,0.006 13.51,0.006 27.12,0.014 27.14,0.013 52.67,0.026 52.65,0.025 26.57,0.014 26.95,0.014 0.44,-0.002 0.45,-0.002 4.11,-0.02 4.12,-0.019 0.17,-0.008 c 0.43,0 0.85,-0.02 1.27,-0.063 0.85,-0.142 1.65,-0.359 2.44,-0.663 0.75,-0.346 1.46,-0.757 2.15,-1.257 0.62,-0.519 1.2,-1.098 1.71,-1.72 0.49,-0.668 0.9,-1.37 1.26,-2.143 0.18,-0.479 0.33,-0.964 0.45,-1.439 l -105.61,0.012 h -140.56 -35.66 c 0.13,0.444 0.27,0.889 0.44,1.311 0.34,0.742 0.76,1.463 1.25,2.142 0.52,0.632 1.1,1.211 1.72,1.721 0.69,0.5 1.39,0.911 2.15,1.256 0.79,0.304 1.58,0.521 2.43,0.664 0.42,0.043 0.85,0.062 1.27,0.062 h 0.12 l 6.16,0.039 3.07,0.015 h 0.56 c 0,-0.002 0,-0.008 0.01,-0.008 m -28.09,187.012 c 1.62,0 3.24,0 4.86,0.004 11.08,0.008 22.16,0.012 33.23,0.016 l 33.36,0.015 33.36,0.016 c 42.56,0.023 85.13,0.042 127.7,0.062 h 1.8 c 22.19,0.016 44.37,0.028 66.56,0.036 3.49,-0.016 6.97,-0.036 10.46,-0.055 l 0.28,-0.01 c 0.5,0 1.01,-0.026 1.5,-0.076 1.03,-0.173 2.01,-0.44 2.99,-0.815 0.92,-0.422 1.79,-0.927 2.64,-1.546 0.77,-0.639 1.48,-1.351 2.11,-2.116 0.6,-0.824 1.12,-1.711 1.54,-2.634 0.37,-0.972 0.64,-1.931 0.81,-2.932 0.06,-0.586 0.09,-1.157 0.08,-1.697 l 0.01,-0.45 -0.01,-0.358 -0.01,-1.817 -0.02,-1.719 v -0.201 -0.119 l -0.06,-8.051 -0.01,-0.454 v -0.448 c 0,-0.068 0,-0.132 0.01,-0.2 V 412.458 307.431 l -28.3,0.01 c -0.18,1.105 -0.51,2.211 -0.98,3.279 -0.94,2.15 -2.49,4.053 -4.47,5.504 -1.96,1.426 -4.3,2.299 -6.78,2.525 -0.16,0.014 -0.29,0.025 -0.42,0.032 -0.12,0.023 -0.25,0.039 -0.37,0.039 l -0.11,0.004 h -0.1 c -0.1,0.015 -0.21,0.023 -0.31,0.023 h -2.27 c -1.3,0 -2.6,0 -3.9,0.004 h -1.12 -1.63 -1.89 c -0.03,0 -0.06,0 -0.1,-0.004 l -30.48,-0.014 -30.04,-0.013 -27.94,-0.014 -27.94,-0.014 c -28.57,-0.011 -57.13,-0.027 -85.68,-0.043 -13.05,-0.007 -26.08,-0.015 -39.11,-0.019 -0.05,0.004 -0.11,0.008 -0.16,0.008 -0.61,0 -1.21,0 -1.82,-0.004 h -6.71 c -0.77,-0.004 -1.52,-0.004 -2.28,-0.004 -0.1,0 -0.21,-0.008 -0.3,-0.024 h -0.11 c -0.04,0 -0.07,0 -0.11,-0.003 -0.13,0 -0.25,-0.016 -0.37,-0.04 -0.14,-0.007 -0.28,-0.019 -0.41,-0.031 -2.48,-0.226 -4.83,-1.099 -6.78,-2.525 -1.99,-1.451 -3.54,-3.354 -4.47,-5.504 -0.46,-1.021 -0.79,-2.087 -0.98,-3.17 l -28.66,0.008 0.01,138.049 v 27.882 c 0.02,0.151 0.04,0.305 0.04,0.465 l -0.01,1.883 c 0.03,0.143 0.04,0.289 0.04,0.441 l -0.02,1.548 -0.01,1.531 -0.03,3.427 -0.02,3.35 v 0.244 0.244 l -0.01,0.429 -0.01,0.735 c 0,0.407 0,0.817 0,1.227 l -0.01,0.435 v 0.385 c 0,0.606 0.03,1.177 0.09,1.765 0.17,1 0.44,1.959 0.81,2.931 0.42,0.923 0.94,1.81 1.54,2.634 0.63,0.764 1.34,1.476 2.11,2.115 0.85,0.619 1.72,1.125 2.64,1.546 0.98,0.375 1.96,0.642 3,0.816 0.48,0.05 0.98,0.075 1.49,0.075 l 0.21,-0.001 c 2.59,0.027 5.11,0.039 7.63,0.051 l 3.8,0.019 h 0.61 c 0,-0.002 0.01,-0.012 0.01,-0.012 m 300.43,5.173 -0.08,-0.004 c -0.75,0.004 -1.49,0.004 -2.23,0.004 -0.06,0 -0.12,-0.004 -0.18,-0.008 -24.79,-0.008 -49.58,-0.02 -74.37,-0.035 l -34.35,-0.016 -34.36,-0.016 c -35.12,-0.015 -70.24,-0.035 -105.35,-0.054 l -24.03,-0.012 -24.03,-0.012 c -0.07,0.008 -0.15,0.012 -0.22,0.012 -0.74,-0.004 -1.49,-0.004 -2.23,-0.004 h -4.2 l -4.06,-0.004 h -2.8 c -0.13,0 -0.26,-0.012 -0.39,-0.031 h -0.11 c -0.04,0 -0.09,0 -0.14,-0.004 -0.16,-0.004 -0.32,-0.02 -0.48,-0.055 -0.16,-0.008 -0.32,-0.019 -0.48,-0.035 -3.05,-0.274 -5.93,-1.347 -8.33,-3.103 -2.45,-1.783 -4.35,-4.123 -5.5,-6.766 -0.96,-2.178 -1.45,-4.452 -1.46,-6.758 -0.01,-0.078 -0.01,-0.156 -0.01,-0.234 l 0.01,-1.692 c -0.01,-0.096 -0.02,-0.194 -0.02,-0.297 0.02,-2.266 0.03,-4.529 0.05,-6.795 v -0.138 -68.313 -105.761 l -8.13,-14.377 -12.77,-22.583 -1.32,-2.334 -1.35,-2.392 -2.45,-4.33 -2.42,-4.284 -0.72,-1.281 -2.01,-3.544 c -0.23,-0.406 -0.34,-0.87 -0.32,-1.341 -0.01,-0.001 -0.05,-0.183 -0.05,-0.184 -0.06,-0.247 -0.1,-0.493 -0.14,-0.74 -0.03,-0.113 -0.04,-0.226 -0.05,-0.344 -0.02,-0.188 -0.03,-0.375 -0.04,-0.567 -0.12,-1.551 0.21,-3.161 0.95,-4.653 0.05,-0.098 0.1,-0.191 0.15,-0.285 0.23,-0.451 0.48,-0.849 0.78,-1.236 0.36,-0.47 0.77,-0.905 1.21,-1.29 l 0.1,-0.091 c 0.31,-0.263 0.63,-0.508 0.98,-0.746 l 0.1,-0.071 0.13,-0.082 c 0.03,-0.019 0.06,-0.039 0.09,-0.054 0.31,-0.199 0.66,-0.384 1.04,-0.552 0.38,-0.164 0.7,-0.281 1.02,-0.383 l 0.12,-0.033 c 0.14,-0.041 0.27,-0.077 0.39,-0.105 l 0.1,-0.023 c 0.19,-0.043 0.29,-0.059 0.4,-0.07 0.47,-0.438 1.07,-0.68 1.7,-0.68 l 147.38,0.07 c 50.62,0.028 101.24,0.051 151.86,0.074 l 51.01,0.026 51.04,0.025 c 0.09,0 0.19,0.004 0.27,0.016 h 1.14 c 0.57,0 1.14,0.206 1.59,0.581 0.2,0.002 0.39,0.023 0.56,0.063 l 0.14,0.041 v -0.009 c 0.18,0.044 0.3,0.075 0.42,0.11 l 0.13,0.052 v -0.01 c 0.33,0.099 0.65,0.22 0.97,0.356 0.43,0.193 0.78,0.376 1.1,0.576 l 0.08,0.066 0.01,-0.009 c 0.03,0.016 0.06,0.035 0.09,0.054 0,0 0.1,0.07 0.1,0.07 0.37,0.252 0.69,0.494 0.99,0.753 l 0.08,0.066 c 0.49,0.433 0.9,0.868 1.26,1.334 0.29,0.387 0.55,0.785 0.76,1.181 0.07,0.152 0.12,0.244 0.17,0.338 0.74,1.498 1.07,3.108 0.95,4.659 -0.01,0.192 -0.02,0.379 -0.05,0.568 0,0.117 -0.02,0.23 -0.04,0.34 -0.04,0.249 -0.08,0.496 -0.14,0.743 l -0.02,0.097 c -0.01,0.051 -0.02,0.087 -0.03,0.118 l -0.03,0.104 -0.04,0.111 0.01,0.003 -0.04,0.125 c -0.11,0.339 -0.23,0.579 -0.38,0.792 -0.05,0.203 -0.13,0.401 -0.24,0.581 l -2,3.548 -0.72,1.277 -4.84,8.567 -0.1,0.163 -2.6,4.614 c -6.97,12.336 -13.95,24.668 -20.92,36.996 -0.08,0.145 -0.18,0.278 -0.29,0.4 l 0.01,137.818 v 28.191 c 0.01,0.097 0.02,0.195 0.02,0.297 l 0.04,6.933 0.04,6.934 c 0,0.102 0,0.2 -0.01,0.298 l 0.01,1.694 c 0,0.063 0,0.122 -0.01,0.185 0,2.32 -0.49,4.61 -1.46,6.804 -1.15,2.643 -3.05,4.983 -5.5,6.765 -2.4,1.757 -5.28,2.83 -8.33,3.104 -0.16,0.015 -0.32,0.027 -0.48,0.035 -0.17,0.037 -0.33,0.055 -0.49,0.055 -0.05,0.003 -0.09,0.003 -0.13,0.003 h -0.12 c -0.12,0.02 -0.25,0.032 -0.38,0.032 h -2.8 l -4.06,0.004 z" />
          <path
             inkscape:connector-curvature="0"
             id="path5465"
             style="fill:#00006f;fill-opacity:1;fill-rule:nonzero;stroke:#00006f;stroke-width:0.2;stroke-linecap:butt;stroke-linejoin:miter;stroke-miterlimit:10;stroke-dasharray:none;stroke-opacity:1"
             d="m 1098.76,279.323 h 0.26 c 0.24,0 0.47,0.007 0.71,0.007 v -0.015 c 2.18,-0.005 4.37,-0.007 6.55,-0.013 -0.07,-0.396 -0.14,-0.794 -0.21,-1.201 -0.13,-0.731 -0.25,-1.461 -0.37,-2.199 -0.01,-0.096 -0.03,-0.195 -0.04,-0.293 -2.16,0.004 -4.31,0.006 -6.46,0.011 -0.29,0 -0.53,0.839 -0.53,1.852 v 1.851 c 0.02,0.007 0.05,0.007 0.07,0.007 0.01,-0.007 0.01,-0.007 0.02,-0.007" />
          <path
             inkscape:connector-curvature="0"
             id="path5467"
             style="fill:#00006f;fill-opacity:1;fill-rule:nonzero;stroke:#00006f;stroke-width:0.2;stroke-linecap:butt;stroke-linejoin:miter;stroke-miterlimit:10;stroke-dasharray:none;stroke-opacity:1"
             d="m 1093.87,288.713 c -0.94,-0.001 -1.88,0 -2.82,-0.001 0,1.294 0,2.586 0,3.88 0,1.01 0.64,1.847 1.41,1.847 0.77,0 1.41,-0.838 1.41,-1.849 0,-1.294 0,-2.584 0,-3.877" />
          <path
             inkscape:connector-curvature="0"
             id="path5469"
             style="fill:#00006f;fill-opacity:1;fill-rule:nonzero;stroke:#00006f;stroke-width:0.2;stroke-linecap:butt;stroke-linejoin:miter;stroke-miterlimit:10;stroke-dasharray:none;stroke-opacity:1"
             d="m 1093.86,281.707 c 0,-1.009 -0.63,-1.847 -1.41,-1.845 -0.77,0 -1.41,0.838 -1.41,1.847 0.01,1.152 0.01,2.294 0.01,3.438 0.94,0.002 1.88,0 2.81,0.002 0,-1.146 0,-2.287 0,-3.442" />
          <path
             inkscape:connector-curvature="0"
             id="path5471"
             style="fill:#00006f;fill-opacity:1;fill-rule:nonzero;stroke:#00006f;stroke-width:0.2;stroke-linecap:butt;stroke-linejoin:miter;stroke-miterlimit:10;stroke-dasharray:none;stroke-opacity:1"
             d="m 1092.04,281.447 c -1.77,0 -3.56,0.002 -5.34,0.004 0.01,1.231 0.01,2.464 0.01,3.695 1.78,-0.002 3.55,-0.002 5.33,-0.004 0.77,0 1.41,-0.846 1.41,-1.848 0,-1.01 -0.64,-1.847 -1.41,-1.847" />
          <path
             inkscape:connector-curvature="0"
             id="path5473"
             style="fill:#00006f;fill-opacity:1;fill-rule:nonzero;stroke:#00006f;stroke-width:0.2;stroke-linecap:butt;stroke-linejoin:miter;stroke-miterlimit:10;stroke-dasharray:none;stroke-opacity:1"
             d="m 1091.96,288.692 c -1.75,0.002 -3.5,0.002 -5.25,0.003 0,1.231 0,2.464 0,3.695 1.76,0 3.51,-10e-4 5.25,-0.003 0.77,0 1.41,-0.839 1.41,-1.848 0,-1.003 -0.64,-1.847 -1.41,-1.847" />
          <path
             inkscape:connector-curvature="0"
             id="path5475"
             style="fill:#00006f;fill-opacity:1;fill-rule:nonzero;stroke:#00006f;stroke-width:0.2;stroke-linecap:butt;stroke-linejoin:miter;stroke-miterlimit:10;stroke-dasharray:none;stroke-opacity:1"
             d="m 1096.17,278.746 -0.15,0.087 c 0.05,-0.029 0.1,-0.059 0.15,-0.087 m 4.89,-2.543 c -0.55,-0.715 -1.44,-0.698 -1.99,0.002 -0.09,0.124 -0.19,0.235 -0.28,0.351 -0.01,0.006 -0.01,0.011 -0.02,0.017 0,0.002 0,0.004 0,0.004 -0.02,0.024 -0.04,0.046 -0.06,0.068 0,0.007 -0.01,0.017 -0.02,0.024 -0.01,0.011 -0.02,0.024 -0.03,0.033 -0.01,0.019 -0.03,0.039 -0.05,0.058 -0.01,0.009 -0.01,0.018 -0.02,0.028 -0.02,0.018 -0.03,0.033 -0.04,0.051 -0.1,0.108 -0.2,0.213 -0.3,0.321 -0.01,0.003 -0.01,0.007 -0.02,0.011 -0.01,0.015 -0.02,0.029 -0.04,0.042 -0.14,0.134 -0.28,0.263 -0.43,0.391 -0.01,0.013 -0.03,0.024 -0.04,0.037 0,0.006 -0.01,0.011 -0.02,0.019 -0.03,0.02 -0.05,0.04 -0.08,0.061 -0.01,0.014 -0.03,0.031 -0.05,0.048 0,0.003 -0.01,0.007 -0.01,0.009 -0.02,0.017 -0.04,0.035 -0.06,0.052 -0.18,0.148 -0.37,0.289 -0.56,0.422 -0.01,0.004 -0.01,0.007 -0.02,0.009 0,0.004 0,0.006 -0.01,0.008 0,0.003 0,0.007 -0.01,0.011 -0.17,0.118 -0.35,0.231 -0.52,0.344 -0.01,0.002 -0.01,0.004 -0.02,0.007 -0.01,0.006 -0.02,0.012 -0.03,0.021 -0.03,0.02 -0.07,0.04 -0.1,0.059 -0.12,0.065 -0.25,0.124 -0.37,0.183 0,0.002 -0.01,0.002 -0.01,0.004 0,0.002 0,0.004 -0.01,0.004 -0.01,0.007 -0.02,0.013 -0.03,0.018 -0.02,0.006 -0.03,0.013 -0.04,0.019 -0.03,0.013 -0.06,0.026 -0.09,0.039 -0.01,0.003 -0.02,0.009 -0.03,0.014 0,0 0,0 0,0.002 -0.26,0.113 -0.52,0.221 -0.79,0.309 -0.01,0 -0.01,0.002 -0.02,0.008 -0.01,0.002 -0.02,0.005 -0.03,0.009 -0.32,0.1 -0.64,0.185 -0.97,0.25 -0.43,0.063 -0.85,0.096 -1.27,0.096 -0.78,0 -1.41,0.844 -1.41,1.848 0,1.01 0.64,1.847 1.41,1.845 1.01,0 2.03,-0.17 3.01,-0.487 l 0.01,-0.005 c 0.01,0 0.02,0 0.03,-0.008 0.01,-10e-4 0.01,-0.005 0.02,-0.009 0.27,-0.09 0.53,-0.192 0.8,-0.309 0.01,-0.007 0.03,-0.015 0.05,-0.024 0,-0.002 0,-0.002 0.01,-0.004 0.01,-0.007 0.03,-0.015 0.05,-0.022 v 0 c 0.02,-0.013 0.05,-0.028 0.08,-0.042 0.35,-0.163 0.69,-0.349 1.02,-0.547 0.03,-0.018 0.06,-0.035 0.09,-0.053 0.01,-0.006 0.02,-0.011 0.03,-0.017 0.19,-0.118 0.39,-0.242 0.57,-0.379 0.02,-0.006 0.03,-0.012 0.04,-0.024 0.02,-0.013 0.04,-0.028 0.06,-0.045 0.16,-0.115 0.32,-0.235 0.47,-0.361 0.03,-0.015 0.05,-0.031 0.07,-0.048 0.01,-0.007 0.01,-0.013 0.02,-0.019 0.02,-0.012 0.03,-0.025 0.05,-0.04 l 0.05,-0.043 c 0.02,-0.016 0.04,-0.033 0.06,-0.05 0.01,-0.007 0.02,-0.015 0.02,-0.022 0.01,-0.002 0.01,-0.004 0.01,-0.006 0.01,-0.011 0.03,-0.024 0.04,-0.038 0.02,-0.015 0.04,-0.032 0.06,-0.049 0.13,-0.12 0.27,-0.249 0.4,-0.377 0.03,-0.03 0.06,-0.061 0.09,-0.093 0.02,-0.013 0.03,-0.028 0.05,-0.042 0.01,-0.008 0.01,-0.015 0.02,-0.023 0.05,-0.05 0.1,-0.1 0.14,-0.15 0.04,-0.037 0.08,-0.075 0.12,-0.116 0.01,-0.011 0.03,-0.024 0.04,-0.035 0.01,-0.015 0.03,-0.034 0.05,-0.054 v 0 c 0.1,-0.113 0.21,-0.224 0.31,-0.339 0.03,-0.026 0.05,-0.052 0.08,-0.079 0,-0.006 0.01,-0.011 0.01,-0.017 0.01,-0.011 0.02,-0.022 0.03,-0.033 0.01,-0.008 0.01,-0.013 0.02,-0.021 0.01,-0.013 0.02,-0.027 0.03,-0.042 0.02,-0.019 0.03,-0.037 0.05,-0.054 0.02,-0.022 0.04,-0.048 0.06,-0.072 v -0.002 c 0.01,-0.013 0.02,-0.028 0.03,-0.041 0.02,-0.016 0.03,-0.033 0.04,-0.052 0.07,-0.081 0.14,-0.162 0.21,-0.251 0.27,-0.348 0.4,-0.822 0.4,-1.296 0,-0.48 -0.13,-0.961 -0.41,-1.316" />
          <path
             inkscape:connector-curvature="0"
             id="path5477"
             style="fill:#00006f;fill-opacity:1;fill-rule:nonzero;stroke:#00006f;stroke-width:0.2;stroke-linecap:butt;stroke-linejoin:miter;stroke-miterlimit:10;stroke-dasharray:none;stroke-opacity:1"
             d="m 1096.2,295.762 c -0.05,-0.03 -0.1,-0.057 -0.15,-0.087 0.05,0.03 0.1,0.059 0.15,0.087 m 4.9,2.536 c -0.55,0.715 -1.44,0.702 -1.99,0.002 -0.1,-0.124 -0.19,-0.235 -0.29,-0.352 0,-0.005 -0.01,-0.011 -0.01,-0.016 v -0.006 c -0.02,-0.022 -0.04,-0.044 -0.06,-0.067 -0.01,-0.007 -0.02,-0.016 -0.02,-0.024 -0.01,-0.011 -0.02,-0.024 -0.03,-0.035 -0.02,-0.018 -0.04,-0.037 -0.05,-0.055 -0.01,-0.01 -0.02,-0.019 -0.03,-0.03 -0.01,-0.017 -0.03,-0.032 -0.04,-0.05 -0.1,-0.107 -0.2,-0.213 -0.3,-0.32 0,-0.004 -0.01,-0.008 -0.01,-0.011 -0.02,-0.015 -0.03,-0.03 -0.04,-0.043 -0.14,-0.133 -0.29,-0.261 -0.43,-0.391 -0.02,-0.011 -0.03,-0.022 -0.04,-0.035 -0.01,-0.007 -0.02,-0.013 -0.02,-0.018 -0.03,-0.021 -0.06,-0.041 -0.08,-0.061 -0.02,-0.017 -0.04,-0.032 -0.06,-0.049 0,-0.003 0,-0.007 -0.01,-0.011 -0.02,-0.014 -0.04,-0.033 -0.06,-0.05 -0.18,-0.148 -0.37,-0.288 -0.56,-0.422 0,-0.003 -0.01,-0.005 -0.01,-0.009 l -0.01,-0.007 c -0.01,-0.004 -0.01,-0.008 -0.02,-0.011 -0.17,-0.117 -0.34,-0.23 -0.52,-0.343 l -0.01,-0.007 c -0.02,-0.006 -0.03,-0.011 -0.04,-0.023 -0.03,-0.018 -0.06,-0.038 -0.1,-0.057 -0.12,-0.065 -0.24,-0.124 -0.37,-0.183 0,-0.002 0,-0.002 -0.01,-0.004 0,-0.002 0,-0.002 0,-0.004 -0.01,-0.005 -0.03,-0.011 -0.04,-0.018 -0.01,-0.006 -0.02,-0.011 -0.04,-0.019 -0.03,-0.013 -0.05,-0.026 -0.09,-0.038 -0.01,-0.004 -0.02,-0.01 -0.03,-0.013 v -0.002 c -0.26,-0.115 -0.52,-0.221 -0.79,-0.309 0,0 -0.01,-0.002 -0.02,-0.008 -0.01,-0.002 -0.01,-0.005 -0.02,-0.009 -0.33,-0.1 -0.65,-0.185 -0.98,-0.25 -0.42,-0.061 -0.85,-0.093 -1.27,-0.093 -0.77,0 -1.41,-0.844 -1.41,-1.845 0,-1.011 0.63,-1.849 1.41,-1.849 1.01,0 2.03,0.168 3.01,0.483 0,0.002 0.01,0.003 0.02,0.005 0,0 0.01,0 0.02,0.008 0,0.003 0.01,0.005 0.02,0.009 0.27,0.091 0.53,0.192 0.8,0.307 0.01,0.009 0.03,0.017 0.05,0.024 0,0.002 0.01,0.004 0.01,0.006 0.01,0.005 0.03,0.013 0.05,0.02 v 0.002 c 0.03,0.011 0.05,0.026 0.08,0.041 0.35,0.163 0.69,0.348 1.02,0.546 0.03,0.016 0.06,0.035 0.09,0.054 0.01,0.003 0.02,0.011 0.03,0.016 0.19,0.119 0.39,0.241 0.58,0.378 0.01,0.005 0.02,0.011 0.03,0.024 0.02,0.013 0.04,0.028 0.06,0.044 0.16,0.115 0.32,0.234 0.47,0.359 0.03,0.015 0.05,0.034 0.07,0.05 0.01,0.006 0.01,0.013 0.02,0.019 0.02,0.013 0.04,0.026 0.05,0.039 l 0.05,0.044 c 0.02,0.015 0.04,0.034 0.06,0.05 0.01,0.008 0.02,0.015 0.03,0.022 0,0.002 0,0.004 0,0.006 0.01,0.011 0.03,0.024 0.04,0.037 0.02,0.015 0.04,0.033 0.06,0.05 0.14,0.12 0.27,0.248 0.4,0.376 0.03,0.029 0.06,0.061 0.1,0.092 0.01,0.013 0.03,0.028 0.04,0.043 0.01,0.007 0.01,0.015 0.02,0.024 0.05,0.048 0.1,0.098 0.14,0.148 0.04,0.037 0.08,0.076 0.12,0.117 0.02,0.011 0.03,0.022 0.04,0.035 0.01,0.013 0.03,0.033 0.05,0.052 0,0 0,0.002 0,0.002 0.11,0.112 0.21,0.224 0.32,0.338 0.02,0.024 0.04,0.05 0.07,0.078 0,0.006 0.01,0.011 0.01,0.019 l 0.03,0.031 c 0.01,0.007 0.01,0.015 0.02,0.02 l 0.04,0.045 c 0.01,0.016 0.03,0.035 0.04,0.052 0.02,0.024 0.04,0.046 0.06,0.072 0,0 0,0.002 0,0.002 0.01,0.013 0.02,0.027 0.04,0.04 0.01,0.017 0.02,0.036 0.04,0.052 0.06,0.082 0.13,0.163 0.2,0.252 0.27,0.348 0.41,0.82 0.41,1.296 0,0.479 -0.14,0.961 -0.41,1.316" />
          <path
             inkscape:connector-curvature="0"
             id="path5479"
             style="fill:none;stroke:#00006f;stroke-width:8;stroke-linecap:butt;stroke-linejoin:miter;stroke-miterlimit:10;stroke-dasharray:none;stroke-opacity:1"
             d="m 1100.7,279.679 8.81,13.337" />
          <path
             inkscape:connector-curvature="0"
             id="path5481"
             style="fill:none;stroke:#00006f;stroke-width:8;stroke-linecap:butt;stroke-linejoin:miter;stroke-miterlimit:10;stroke-dasharray:none;stroke-opacity:1"
             d="m 1090.69,286.709 9.52,0.113" />
          <path
             inkscape:connector-curvature="0"
             id="path5483"
             style="fill:none;stroke:#00006f;stroke-width:8;stroke-linecap:butt;stroke-linejoin:miter;stroke-miterlimit:10;stroke-dasharray:none;stroke-opacity:1"
             d="m 1106.53,284.18 -9.04,-1.688" />
          <path
             inkscape:connector-curvature="0"
             id="path5485"
             style="fill:none;stroke:#00006f;stroke-width:8;stroke-linecap:butt;stroke-linejoin:miter;stroke-miterlimit:10;stroke-dasharray:none;stroke-opacity:1"
             d="m 1109.2,293.926 -12.8,-3.59" />
          <path
             inkscape:connector-curvature="0"
             id="path5487"
             style="fill:#00006f;fill-opacity:1;fill-rule:nonzero;stroke:#00006f;stroke-width:0.2;stroke-linecap:butt;stroke-linejoin:miter;stroke-miterlimit:10;stroke-dasharray:none;stroke-opacity:1"
             d="m 1089.5,286.874 c 0,-0.887 0,-1.775 0,-2.657 0,-1.008 -0.64,-1.845 -1.41,-1.845 -0.68,0 -1.26,0.653 -1.38,1.501 0,1.775 0,3.551 0,5.326 0.13,0.842 0.71,1.486 1.38,1.486 0.77,0 1.41,-0.838 1.41,-1.847 0,-0.657 0,-1.314 0,-1.964" />
          <path
             inkscape:connector-curvature="0"
             id="path5489"
             style="fill:none;stroke:#00006f;stroke-width:4;stroke-linecap:butt;stroke-linejoin:miter;stroke-miterlimit:10;stroke-dasharray:none;stroke-opacity:1"
             d="m 1101,297.439 h 15.03" />
          <path
             inkscape:connector-curvature="0"
             id="path5491"
             style="fill:#00006f;fill-opacity:1;fill-rule:nonzero;stroke:#00006f;stroke-width:1;stroke-linecap:butt;stroke-linejoin:miter;stroke-miterlimit:10;stroke-dasharray:none;stroke-opacity:1"
             d="m 65.51,482.353 v -14.566 l 0.004,14.564 v 0.006 z" />
          <path
             inkscape:connector-curvature="0"
             id="path5493"
             style="fill:#00006f;fill-opacity:1;fill-rule:nonzero;stroke:#00006f;stroke-width:1;stroke-linecap:butt;stroke-linejoin:miter;stroke-miterlimit:10;stroke-dasharray:none;stroke-opacity:1"
             d="m 247.913,240.336 v -0.013 c 2.648,0.195 5.297,0.377 7.945,0.548 -2.66,-0.168 -5.31,-0.348 -7.945,-0.535" />
          <path
             inkscape:connector-curvature="0"
             id="path5495"
             style="fill:#00006f;fill-opacity:1;fill-rule:nonzero;stroke:#00006f;stroke-width:1;stroke-linecap:butt;stroke-linejoin:miter;stroke-miterlimit:10;stroke-dasharray:none;stroke-opacity:1"
             d="m 56.2663,245.314 c 0.004,16.582 0.008,33.133 0.012,49.691 0.004,16.137 0.008,32.278 0.008,48.414 l 0.003,24.493 c 0.004,13.32 0.008,26.64 0.008,39.957 0.004,20.961 0.008,41.922 0.012,62.879 v 2.257 l 9.203,9.352 -0.008,-36.426 -0.008,-54.648 v -95.774 -45.824 l -3.765,-1.785 -5.465,-2.594 z m 356.4567,2.121 -5.355,2.539 0.007,93.422 v 139.121 l 8.707,-8.887 0.207,-0.207 -0.003,-2.261 c 0.003,-20.957 0.007,-41.918 0.011,-62.875 0,-13.321 0.004,-26.641 0.008,-39.961 l 0.004,-24.305 c 0,-16.203 0.004,-32.402 0.008,-48.602 l 0.011,-49.687 0.004,-0.012 z M 69.8323,343.396 v 139.895 c -0.062,0.503 -0.093,1.035 -0.093,1.574 0,0.332 0,0.664 0.004,1 2.007,1.004 4.144,1.984 6.343,2.918 12.567,5.238 26.7697,8.875 43.4337,11.117 10.281,1.344 21.008,2.027 31.875,2.039 h 0.199 c 10.688,0 21.363,-0.691 31.731,-2.047 16.64,-2.242 30.832,-5.879 43.375,-11.109 2.722,-1.157 5.164,-2.301 7.476,-3.508 l -0.008,-0.375 0.028,-93.617 v -95.774 -45.726 l -1.071,0.203 c -2.445,0.461 -4.972,0.941 -7.535,1.394 -14,2.473 -28.5,4.184 -44.336,5.211 -10.015,0.653 -20.34,0.981 -30.695,0.981 -4.516,0 -9.129,-0.059 -13.707,-0.184 -15.168,-0.41 -30.172,-1.558 -44.5977,-3.402 -7.699,-0.977 -15.242,-2.164 -22.422,-3.535 z m 168.9107,-93.617 -0.075,0.008 0.004,93.609 V 484.9 l 0.051,0.402 c 2.344,1.219 4.797,2.367 7.496,3.512 12.547,5.234 26.734,8.867 43.375,11.113 10.367,1.356 21.043,2.043 31.734,2.043 h 0.2 c 10.867,-0.008 21.593,-0.695 31.875,-2.035 16.656,-2.242 30.867,-5.879 43.433,-11.121 2.215,-0.938 4.352,-1.922 6.352,-2.93 -0.008,-2.816 -0.008,-5.648 -0.004,-8.476 l 0.004,-27.293 v -27.614 c 0.004,-35.167 0.004,-70.332 0.012,-105.499 v -34.739 c 0,-10.488 0,-20.976 0.003,-31.465 -0.117,-0.07 -0.238,-0.168 -0.359,-0.289 -7.004,1.332 -14.441,2.504 -22.094,3.481 -14.429,1.844 -29.433,2.988 -44.601,3.402 -4.574,0.121 -9.188,0.184 -13.703,0.184 -10.356,0 -20.684,-0.328 -30.696,-0.985 -15.836,-1.027 -30.336,-2.734 -44.336,-5.211 -2.992,-0.531 -5.914,-1.086 -8.679,-1.648 z m 77.246,256.465 c -12.953,-0.293 -25.508,-1.528 -37.317,-3.676 -11.687,-2.125 -21.847,-4.918 -31.062,-8.543 -3.953,-1.555 -7.457,-3.129 -10.715,-4.809 h -0.391 l -0.14,0.004 h -0.414 c -3.227,1.664 -6.711,3.231 -10.641,4.77 -9.211,3.625 -19.371,6.418 -31.059,8.547 -11.812,2.144 -24.367,3.379 -37.316,3.672 -1.918,0.039 -3.809,0.062 -5.617,0.062 -11.031,0 -22.102,-0.734 -32.895,-2.184 -12.066,-1.625 -22.8667,-4 -33.0037,-7.269 -4.793,-1.539 -9.496,-3.348 -13.98,-5.371 -1.813,-0.813 -3.582,-1.676 -5.262,-2.563 -0.215,-0.07 -0.414,-0.172 -0.59,-0.304 -0.101,-0.082 -0.164,-0.137 -0.226,-0.2 l -6.106,-6.211 -6.105,-6.207 c -0.125,-0.128 -0.238,-0.273 -0.332,-0.433 -0.535,-0.418 -0.844,-1.043 -0.844,-1.707 l -0.008,-33.074 c 0,-15.512 -0.004,-31.008 -0.008,-46.5 v -10.907 -10.902 l -0.007,-34.043 -0.008,-34.031 v -6.266 c 0,-5.828 -0.004,-11.66 -0.004,-17.492 v -0.082 l -0.004,-18.25 -0.004,-18.25 v -1.891 c 0,-0.539 0.207,-1.058 0.582,-1.468 0.086,-0.137 0.188,-0.258 0.297,-0.364 0.387,-0.39 0.941,-0.64 1.426,-0.64 0.035,0 0.07,0 0.105,0.004 2.985,0.234 6.168,0.472 9.453,0.699 1.008,0.066 2.02,0.133 3.024,0.199 l 1.363,0.09 0.367,0.023 c 0.117,0.008 0.227,0.012 0.332,0.024 4.153,0.261 8.309,0.504 12.352,0.715 1.113,0.058 2.187,0.113 3.262,0.168 5.632,0.277 11.507,0.523 17.4567,0.726 4.55,0.152 9.179,0.281 13.754,0.387 l 0.277,0.008 0.25,0.004 c 1.215,0.027 2.426,0.05 3.637,0.074 l 0.066,0.008 c 7.898,0.144 15.859,0.218 23.664,0.218 15.106,0 30.238,-0.281 44.977,-0.836 12.552,-0.477 24.834,-1.159 36.558,-2.02 v 3.446 c 0,2.043 1.703,3.75 3.75,3.75 h 15.281 c 2.047,0 3.75,-1.707 3.75,-3.75 v -3.264 c 11.891,0.843 24.083,1.511 36.293,1.979 14.793,0.555 29.942,0.836 45.028,0.836 7.808,0 15.769,-0.074 23.664,-0.227 l 0.066,0.004 c 1.211,-0.027 2.426,-0.051 3.637,-0.078 l 0.25,-0.004 0.254,-0.008 c 4.664,-0.105 9.289,-0.234 13.75,-0.39 5.949,-0.199 11.832,-0.446 17.488,-0.723 1.07,-0.051 2.149,-0.105 3.219,-0.164 4.07,-0.215 8.242,-0.457 12.394,-0.719 0.102,-0.007 0.204,-0.015 0.309,-0.019 l 1.738,-0.117 c 1.02,-0.067 2.024,-0.133 3.035,-0.203 3.286,-0.223 6.465,-0.458 9.457,-0.696 0.032,0 0.071,-0.004 0.106,-0.004 0.48,0 1.039,0.25 1.426,0.641 0.402,0.398 0.636,0.957 0.636,1.531 0,0.098 -0.007,0.192 -0.019,0.289 0.012,0.09 0.019,0.184 0.019,0.278 v 1.894 c -0.003,12.164 -0.007,24.332 -0.007,36.492 v 0.094 c 0,5.832 -0.004,11.664 -0.004,17.492 v 6.266 l -0.008,34.035 -0.008,34.039 c 0,7.27 0,14.539 -0.004,21.813 l -0.004,23.246 v 23.25 l -0.008,33.074 c 0,0.305 -0.066,0.601 -0.195,0.887 -0.105,0.293 -0.273,0.546 -0.488,0.765 l -4.051,4.117 -8.16,8.301 c -0.203,0.203 -0.438,0.363 -0.699,0.469 -1.766,0.934 -3.633,1.848 -5.547,2.707 -4.485,2.019 -9.184,3.828 -13.977,5.371 -10.136,3.27 -20.937,5.645 -33.008,7.266 -10.793,1.453 -21.859,2.183 -32.894,2.183 -1.805,0 -3.691,-0.019 -5.613,-0.058" />
          <path
             inkscape:connector-curvature="0"
             id="path5497"
             style="fill:#00006f;fill-opacity:1;fill-rule:nonzero;stroke:#00006f;stroke-width:1;stroke-linecap:butt;stroke-linejoin:miter;stroke-miterlimit:10;stroke-dasharray:none;stroke-opacity:1"
             d="m 43.0686,482.827 c 0.004,-1.414 0.008,-2.826 0.013,-4.24 v -0.135 c 0.003,-0.979 0.006,-1.958 0.008,-2.938 0.002,-1.005 0.006,-2.01 0.01,-3.015 0.003,-0.961 0.006,-1.922 0.009,-2.883 10e-4,-0.374 0.002,-0.747 0.002,-1.121 v -0.036 c 0.08,-26.778 0.156,-53.557 0.238,-80.336 0.006,-2.015 0.012,-4.028 0.018,-6.043 0.001,-0.446 0.001,-0.892 0.003,-1.338 0,-0.023 0.001,-0.046 0.002,-0.069 0.088,-29.165 0.17,-58.333 0.257,-87.498 0.061,-19.886 0.118,-39.774 0.177,-59.661 0.002,-1.175 0.977,-2.156 2.156,-2.156 1.172,0 2.157,0.981 2.155,2.156 -0.084,28.084 -0.164,56.168 -0.248,84.253 -0.097,31.757 -0.188,63.514 -0.282,95.271 -0.041,13.649 -0.081,27.3 -0.121,40.95 l -0.044,14.806 c 0,1.078 -0.004,2.157 -0.009,3.235 -0.002,0.683 -0.004,1.367 -0.005,2.051 v 0.001 c -0.001,0.024 -0.001,0.049 -0.002,0.073 v 0.25 c -0.003,0.567 -0.003,1.133 -0.004,1.699 0,0.021 -0.001,0.043 -0.002,0.064 -0.002,0.802 -0.004,1.601 -0.007,2.404 v 0.124 c -0.002,0.486 -0.002,0.971 -0.004,1.457 -0.002,0.73 -0.005,1.458 -0.007,2.189 0,0.162 0,0.324 -10e-4,0.486 -0.003,1.175 -0.978,2.156 -2.156,2.156 -1.173,0 -2.158,-0.981 -2.156,-2.156" />
          <path
             inkscape:connector-curvature="0"
             id="path5499"
             style="fill:#00006f;fill-opacity:1;fill-rule:nonzero;stroke:#00006f;stroke-width:1;stroke-linecap:butt;stroke-linejoin:miter;stroke-miterlimit:10;stroke-dasharray:none;stroke-opacity:1"
             d="m 63.3855,485.158 c -5.956,-0.006 -11.913,-0.015 -17.869,-0.021 -1.174,-0.002 -2.155,-0.981 -2.155,-2.156 0,-1.175 0.981,-2.157 2.155,-2.156 5.956,0.007 11.913,0.015 17.869,0.021 1.175,0.002 2.156,0.981 2.156,2.156 0,1.174 -0.979,2.156 -2.152,2.156 z" />
          <path
             inkscape:connector-curvature="0"
             id="path5501"
             style="fill:#00006f;fill-opacity:1;fill-rule:nonzero;stroke:#00006f;stroke-width:1;stroke-linecap:butt;stroke-linejoin:miter;stroke-miterlimit:10;stroke-dasharray:none;stroke-opacity:1"
             d="m 164.502,235.79 c -26.434,-0.066 -52.871,-0.133 -79.3133,-0.199 -12.906,-0.031 -25.808,-0.063 -38.71,-0.098 -1.176,0 -2.157,-0.976 -2.157,-2.156 0,-1.176 0.981,-2.156 2.157,-2.156 22.683,0.058 45.367,0.113 68.0503,0.172 26.262,0.066 52.528,0.128 78.793,0.195 10.603,0.028 21.204,0.053 31.809,0.081 v 4.312 c -20.209,-0.051 -40.417,-0.103 -60.629,-0.151" />
          <path
             inkscape:connector-curvature="0"
             id="path5503"
             style="fill:#00006f;fill-opacity:1;fill-rule:nonzero;stroke:#00006f;stroke-width:1;stroke-linecap:butt;stroke-linejoin:miter;stroke-miterlimit:10;stroke-dasharray:none;stroke-opacity:1"
             d="m 431.996,482.839 c -0.004,-1.414 -0.008,-2.826 -0.013,-4.24 v -0.135 c -0.003,-0.979 -0.006,-1.958 -0.008,-2.938 -0.002,-1.005 -0.006,-2.01 -0.01,-3.015 -0.003,-0.962 -0.006,-1.922 -0.009,-2.883 -0.001,-0.374 -0.001,-0.747 -0.002,-1.121 0,-0.012 0,-0.024 -0.001,-0.037 -0.079,-26.777 -0.155,-53.556 -0.237,-80.335 -0.006,-2.015 -0.012,-4.028 -0.018,-6.043 -10e-4,-0.446 -0.002,-0.892 -0.003,-1.338 0,-0.023 -10e-4,-0.046 -0.002,-0.069 -0.088,-29.165 -0.17,-58.333 -0.257,-87.498 -0.061,-19.886 -0.118,-39.774 -0.177,-59.662 -0.002,-1.174 -0.977,-2.155 -2.156,-2.155 -1.172,0 -2.157,0.981 -2.155,2.155 0.084,28.086 0.164,56.169 0.248,84.254 0.097,31.757 0.188,63.514 0.282,95.271 0.041,13.648 0.081,27.3 0.121,40.95 l 0.044,14.806 c 0,1.078 0.004,2.157 0.009,3.235 0.002,0.683 0.004,1.367 0.005,2.051 v 0.001 c 0.001,0.024 0.001,0.049 0.002,0.073 v 0.25 c 0.003,0.567 0.003,1.133 0.004,1.699 0,0.021 10e-4,0.043 0.002,0.064 0.002,0.802 0.004,1.601 0.007,2.404 v 0.124 c 0.002,0.486 0.002,0.971 0.004,1.456 0.002,0.731 0.005,1.459 0.007,2.19 0,0.162 0,0.324 0.001,0.486 0.002,1.175 0.978,2.156 2.156,2.156 1.173,0 2.158,-0.981 2.156,-2.156" />
          <path
             inkscape:connector-curvature="0"
             id="path5505"
             style="fill:#00006f;fill-opacity:1;fill-rule:nonzero;stroke:#00006f;stroke-width:1;stroke-linecap:butt;stroke-linejoin:miter;stroke-miterlimit:10;stroke-dasharray:none;stroke-opacity:1"
             d="m 411.679,485.17 c 5.956,-0.006 11.913,-0.015 17.869,-0.021 1.174,-0.002 2.155,-0.981 2.155,-2.156 0,-1.175 -0.981,-2.158 -2.155,-2.156 -5.956,0.007 -11.913,0.015 -17.869,0.021 -1.175,0.002 -2.156,0.981 -2.156,2.156 0,1.174 0.979,2.156 2.152,2.156 z" />
          <path
             inkscape:connector-curvature="0"
             id="path5507"
             style="fill:#00006f;fill-opacity:1;fill-rule:nonzero;stroke:#00006f;stroke-width:1;stroke-linecap:butt;stroke-linejoin:miter;stroke-miterlimit:10;stroke-dasharray:none;stroke-opacity:1"
             d="m 247.915,231.647 c 11.275,-0.03 22.553,-0.056 33.828,-0.088 26.262,-0.062 52.527,-0.129 78.789,-0.195 22.684,-0.055 45.367,-0.113 68.051,-0.172 1.176,0 2.156,0.984 2.156,2.156 0,1.18 -0.98,2.156 -2.156,2.156 -12.902,0.036 -25.805,0.067 -38.711,0.098 -26.441,0.066 -52.879,0.133 -79.312,0.199 -20.885,0.052 -41.762,0.104 -62.645,0.159 z" />
          <path
             inkscape:connector-curvature="0"
             id="path5509"
             style="fill:#00006f;fill-opacity:1;fill-rule:nonzero;stroke:#00006f;stroke-width:1;stroke-linecap:butt;stroke-linejoin:miter;stroke-miterlimit:10;stroke-dasharray:none;stroke-opacity:1"
             d="m 245.104,245.804 h -17.048 c -0.901,0 -1.633,-0.582 -1.633,-1.298 v -19.248 c 0,-0.393 0.228,-0.762 0.625,-1.009 l 0.194,-0.17 0.144,-0.106 -0.013,-0.007 0.127,-0.099 -0.012,-0.008 0.284,-0.271 c 0.163,-0.18 0.276,-0.31 0.384,-0.44 l 0.115,-0.119 -0.015,-0.005 c 0,-0.001 0.095,-0.116 0.096,-0.117 0.132,-0.165 0.252,-0.336 0.371,-0.511 l 0.247,-0.387 0.075,-0.12 0.09,-0.13 -0.014,-0.005 0.125,-0.266 c 0.001,0 0.058,-0.121 0.058,-0.121 l 0.065,-0.105 -0.01,-0.018 c 0.108,-0.257 0.203,-0.493 0.278,-0.738 0.101,-0.331 0.177,-0.627 0.234,-0.928 0.05,-0.385 0.082,-0.766 0.082,-1.153 0,-0.436 0.281,-0.844 0.752,-1.09 0.237,-0.157 0.52,-0.259 0.815,-0.293 l -0.014,-3.953 c 0.67,-0.008 1.337,-0.012 2.001,-0.012 0.415,0 0.829,0.002 1.242,0.004 h 6.327 l 0.016,3.958 0.16,-0.012 c 0.29,0 0.575,0.063 0.823,0.182 0.684,0.165 1.163,0.674 1.163,1.237 0,0.385 0.032,0.772 0.082,1.158 0.057,0.301 0.133,0.596 0.221,0.887 0.088,0.286 0.183,0.521 0.284,0.756 l 0.062,0.145 0.184,0.388 c 0.001,0.001 0.07,0.123 0.07,0.125 l 0.091,0.142 c 0.07,0.114 0.141,0.228 0.217,0.338 0.138,0.211 0.259,0.381 0.391,0.547 l 0.081,0.122 0.013,-0.008 c 0.001,0.001 0.101,0.121 0.102,0.121 0.107,0.136 0.22,0.266 0.34,0.397 l 0.186,0.184 0.142,0.136 0.101,0.114 0.011,-0.009 c 0.003,0.003 0.119,0.101 0.119,0.104 l 0.19,0.162 c 0.388,0.25 0.611,0.615 0.611,1.003 v 19.248 c 0,0.716 -0.732,1.298 -1.632,1.298" />
          <path
             inkscape:connector-curvature="0"
             id="path5511"
             style="fill:none;stroke:#00006f;stroke-width:8;stroke-linecap:butt;stroke-linejoin:miter;stroke-miterlimit:10;stroke-dasharray:none;stroke-opacity:1"
             d="m 236.321,228.063 v -88.255 c 0,-4.193 1.666,-8.214 4.631,-11.179 2.965,-2.965 6.986,-4.631 11.179,-4.631 48.589,0 195.377,0 243.965,0 8.731,0 15.808,7.078 15.808,15.809 0,36.063 0,124.072 0,160.224 0,8.782 -7.119,15.901 -15.901,15.901 h -0.051" />
          <path
             inkscape:connector-curvature="0"
             id="path5513"
             style="fill:none;stroke:#00006f;stroke-width:8;stroke-linecap:butt;stroke-linejoin:miter;stroke-miterlimit:10;stroke-dasharray:none;stroke-opacity:1"
             d="m 496.512,316.316 h -10e-4 c -8.768,0 -15.876,-7.108 -15.876,-15.876 0,-36.336 0,-125.186 0,-161.297 0,-8.64 7.004,-15.644 15.644,-15.644 10e-4,0 0.002,0 0.002,0 8.615,0 15.598,6.983 15.598,15.598 v 419.059 c 0,8.661 -7.021,15.682 -15.682,15.682 0,0 -10e-4,0 -0.002,0 -8.594,0 -15.56,-6.966 -15.56,-15.56 0,-41.211 0,-152.869 0,-194.519 0,-4.229 1.68,-8.286 4.671,-11.277 2.991,-2.99 7.047,-4.671 11.277,-4.671 41.103,0 150.313,0 191.605,0 4.275,0 8.375,1.699 11.398,4.722 3.023,3.023 4.721,7.122 4.721,11.398 V 557.4 c 0,4.36 -1.732,8.541 -4.814,11.624 -3.083,3.082 -7.264,4.814 -11.624,4.814 0,0 0,0 -10e-4,0 -8.855,0 -16.034,-7.179 -16.034,-16.034 0,-69.974 0,-348.224 0,-418.247 0,-8.869 7.19,-16.058 16.059,-16.058 0.051,0 0.103,0 0.154,0 4.313,0 8.449,1.713 11.498,4.762 3.049,3.049 4.762,7.185 4.762,11.498 v 160.164 c 0,4.348 -1.727,8.517 -4.801,11.591 -3.074,3.075 -7.244,4.802 -11.591,4.802 h -94.489" />
          <path
             inkscape:connector-curvature="0"
             id="path5515"
             style="fill:none;stroke:#00006f;stroke-width:8;stroke-linecap:butt;stroke-linejoin:miter;stroke-miterlimit:10;stroke-dasharray:none;stroke-opacity:1"
             d="M 595.526,316.379 H 495.305 c -8.567,0 -15.512,6.945 -15.512,15.512 0,0.118 0,0.235 0,0.353 0,4.168 1.656,8.166 4.603,11.113 2.948,2.948 6.945,4.603 11.113,4.603 41.044,0 151.118,0 192.276,0 8.736,0 15.818,-7.082 15.818,-15.818 0,-41.064 0,-150.776 0,-192.677 0,-9.158 7.424,-16.582 16.582,-16.582 24.671,0 70.764,0 95.329,0 4.35,0 8.521,1.728 11.596,4.803 3.076,3.076 4.804,7.247 4.804,11.596 v 417.692 c 0,4.301 -1.709,8.426 -4.751,11.468 -3.041,3.042 -7.167,4.75 -11.468,4.75 -17.678,0 -45.805,0 -63.542,0 -4.342,0 -8.505,-1.724 -11.575,-4.794 -3.07,-3.07 -4.794,-7.233 -4.794,-11.575 0,-0.388 0,-0.777 0,-1.166 0,-8.818 7.149,-15.967 15.967,-15.967 41.327,0 151.407,0 192.175,0 4.103,0 8.038,1.63 10.939,4.531 2.901,2.901 4.531,6.835 4.531,10.938 0,0.479 0,0.958 0,1.438 0,9.165 -7.43,16.595 -16.596,16.595 -17.755,0 -45.733,0 -63.343,0 -4.302,0 -8.428,-1.709 -11.47,-4.751 -3.042,-3.042 -4.751,-7.168 -4.751,-11.47 V 139.169 c 0,-8.994 7.291,-16.286 16.286,-16.286 66.669,0 318.358,0 384.338,0 8.8,0 15.92,7.127 15.92,15.919 0,0.379 0,0.757 0,1.136 0,4.204 -1.67,8.236 -4.64,11.209 -2.97,2.972 -7,4.642 -11.21,4.642 -50.28,0 -205.82,0 -255.99,0 -8.718,0 -15.782,-7.063 -15.782,-15.777 0,-0.436 0,-0.874 0,-1.311 0,-8.736 7.082,-15.818 15.822,-15.818 v 0 c 8.78,0 15.9,7.122 15.9,15.906 0,69.909 0,349.48 0,418.793 0,8.621 -6.99,15.61 -15.61,15.61 v 0 c -8.898,0 -16.112,-7.213 -16.112,-16.112 0,-69.971 0,-347.128 0,-417.752 0,-9.082 7.363,-16.445 16.442,-16.445 7.74,0 15.28,0 15.28,0 h -31.722 47.792 c 4.3,0 8.42,1.709 11.46,4.751 3.05,3.042 4.76,7.167 4.76,11.469 0,31.331 0,99.866 0,131.509 0,4.407 1.75,8.634 4.86,11.75 3.12,3.116 7.35,4.867 11.75,4.867 8.14,0 16.21,0 16.21,0" />
        </g>
      </g>
    </g>
  </g>
</svg>
